<svg width="58" height="41" viewBox="0 0 58 41" fill="none" xmlns="http://www.w3.org/2000/svg">
<path d="M49 20.5C49 31.8218 39.8218 41 28.5 41C17.1782 41 8 31.8218 8 20.5C8 9.17816 17.1782 0 28.5 0C39.8218 0 49 9.17816 49 20.5Z" fill="url(#paint0_linear_106_3)"/>
<path d="M3.256 26.384C2.968 26.384 2.664 26.344 2.344 26.264C2.024 26.184 1.736 26.056 1.48 25.88C1.24 25.688 1.08 25.432 1 25.112C0.984 25.064 0.976 24.992 0.976 24.896C0.976 24.672 1.024 24.424 1.12 24.152C1.232 23.88 1.368 23.688 1.528 23.576C1.592 23.544 1.64 23.544 1.672 23.576C1.72 23.608 1.728 23.64 1.696 23.672C1.68 23.72 1.656 23.784 1.624 23.864C1.592 23.928 1.568 24 1.552 24.08C1.504 24.496 1.592 24.864 1.816 25.184C1.912 25.312 2.024 25.432 2.152 25.544C2.296 25.656 2.432 25.752 2.56 25.832C2.672 25.896 2.808 25.944 2.968 25.976C3.128 25.992 3.288 26 3.448 26C3.704 26 3.952 25.968 4.192 25.904C4.432 25.84 4.608 25.736 4.72 25.592C4.928 25.336 5.032 25.048 5.032 24.728C5.032 24.488 4.968 24.232 4.84 23.96C4.712 23.688 4.512 23.4 4.24 23.096C4.064 22.904 3.896 22.696 3.736 22.472C3.576 22.248 3.472 22.008 3.424 21.752C3.408 21.704 3.392 21.656 3.376 21.608C3.376 21.56 3.376 21.512 3.376 21.464C3.168 21.768 2.952 22.056 2.728 22.328C2.52 22.584 2.336 22.808 2.176 23C2.112 23.096 2.056 23.144 2.008 23.144C1.976 23.144 1.96 23.112 1.96 23.048C1.96 22.904 2.024 22.752 2.152 22.592C2.28 22.448 2.424 22.272 2.584 22.064C2.744 21.84 2.872 21.664 2.968 21.536C3.24 21.136 3.44 20.824 3.568 20.6C3.712 20.36 3.864 20.144 4.024 19.952C4.2 19.744 4.416 19.576 4.672 19.448C4.944 19.32 5.224 19.256 5.512 19.256C5.848 19.256 6.152 19.312 6.424 19.424C6.712 19.52 6.864 19.776 6.88 20.192C6.88 20.384 6.84 20.584 6.76 20.792C6.696 20.984 6.624 21.168 6.544 21.344C6.496 21.44 6.424 21.512 6.328 21.56C6.248 21.592 6.208 21.576 6.208 21.512C6.208 21.448 6.216 21.376 6.232 21.296C6.248 21.216 6.256 21.144 6.256 21.08C6.256 20.808 6.208 20.568 6.112 20.36C6.032 20.136 5.912 19.976 5.752 19.88C5.592 19.768 5.424 19.712 5.248 19.712C4.992 19.712 4.744 19.816 4.504 20.024C4.264 20.216 4.144 20.472 4.144 20.792C4.144 20.824 4.144 20.864 4.144 20.912C4.144 20.96 4.152 21 4.168 21.032C4.232 21.288 4.424 21.576 4.744 21.896C5.064 22.216 5.312 22.496 5.488 22.736C5.792 23.152 5.944 23.576 5.944 24.008C5.944 24.44 5.816 24.84 5.56 25.208C5.32 25.56 4.992 25.84 4.576 26.048C4.176 26.272 3.736 26.384 3.256 26.384ZM10.9461 26.144C10.7061 26.144 10.4901 26.096 10.2981 26C10.1221 25.904 10.0341 25.728 10.0341 25.472C10.0341 25.328 10.0661 25.168 10.1301 24.992C10.2741 24.624 10.4661 24.176 10.7061 23.648C10.9621 23.12 11.2181 22.608 11.4741 22.112C11.7301 21.6 11.9301 21.184 12.0741 20.864C12.1701 20.672 12.2181 20.536 12.2181 20.456C12.2181 20.312 12.1381 20.28 11.9781 20.36C11.8181 20.44 11.6421 20.552 11.4501 20.696C11.2581 20.84 11.1141 20.952 11.0181 21.032C10.6021 21.416 10.1621 21.872 9.69813 22.4C9.25013 22.912 8.83413 23.456 8.45013 24.032C8.08213 24.592 7.79413 25.152 7.58613 25.712C7.57013 25.808 7.46613 25.888 7.27413 25.952C7.08213 26.016 6.90613 26.048 6.74613 26.048C6.49012 26.048 6.39412 25.968 6.45812 25.808C6.82613 24.976 7.20213 24.056 7.58613 23.048C7.98613 22.04 8.43413 21.008 8.93013 19.952C9.29813 19.152 9.70613 18.328 10.1541 17.48C10.6181 16.632 11.1301 15.824 11.6901 15.056C12.2501 14.272 12.8661 13.584 13.5381 12.992C14.1301 12.48 14.7781 12.064 15.4821 11.744C16.2021 11.408 16.9781 11.24 17.8101 11.24C18.1781 11.24 18.4981 11.32 18.7701 11.48C19.0421 11.624 19.1941 11.888 19.2261 12.272V12.488C19.2261 12.712 19.2021 12.936 19.1541 13.16C19.1381 13.224 19.0741 13.256 18.9621 13.256C18.9141 13.256 18.8981 13.248 18.9141 13.232C18.9781 12.816 18.8661 12.52 18.5781 12.344C18.3061 12.168 17.9541 12.08 17.5221 12.08C16.7381 12.08 16.0181 12.224 15.3621 12.512C14.7061 12.8 14.0981 13.184 13.5381 13.664C12.6741 14.416 11.9221 15.376 11.2821 16.544C10.6421 17.712 10.0901 18.904 9.62613 20.12C9.40213 20.712 9.17813 21.304 8.95413 21.896C8.74613 22.488 8.54613 23.04 8.35413 23.552C9.07413 22.592 9.76213 21.768 10.4181 21.08C11.0901 20.392 11.6741 19.904 12.1701 19.616C12.5701 19.392 12.9301 19.28 13.2501 19.28C13.5541 19.28 13.7061 19.408 13.7061 19.664C13.7061 19.888 13.5941 20.176 13.3701 20.528C13.2581 20.704 13.0821 21 12.8421 21.416C12.6181 21.832 12.3781 22.288 12.1221 22.784C11.8821 23.264 11.6741 23.712 11.4981 24.128C11.3221 24.544 11.2341 24.848 11.2341 25.04C11.2341 25.296 11.3461 25.424 11.5701 25.424C11.6981 25.424 11.8421 25.384 12.0021 25.304C12.1781 25.224 12.3061 25.152 12.3861 25.088C12.8181 24.768 13.2421 24.376 13.6581 23.912C14.0741 23.448 14.4261 23.04 14.7141 22.688C14.7301 22.672 14.7381 22.696 14.7381 22.76C14.7381 22.824 14.7221 22.92 14.6901 23.048C14.6741 23.16 14.6261 23.256 14.5461 23.336C14.3701 23.576 14.1861 23.808 13.9941 24.032C13.8181 24.24 13.6421 24.448 13.4661 24.656C13.1621 25.008 12.7941 25.344 12.3621 25.664C11.9461 25.984 11.4741 26.144 10.9461 26.144ZM19.4408 16.832C19.2168 16.832 19.0568 16.76 18.9608 16.616C18.8968 16.536 18.8648 16.432 18.8648 16.304C18.8648 16.048 18.9848 15.84 19.2248 15.68C19.4008 15.584 19.5608 15.536 19.7048 15.536C19.9448 15.536 20.1128 15.608 20.2088 15.752C20.2728 15.832 20.3048 15.936 20.3048 16.064C20.3048 16.32 20.1768 16.528 19.9208 16.688C19.7768 16.784 19.6168 16.832 19.4408 16.832ZM15.2648 26.072C15.1048 26.072 14.9688 26.04 14.8568 25.976C14.7608 25.912 14.7128 25.792 14.7128 25.616C14.7128 25.392 14.7688 25.128 14.8808 24.824C15.0088 24.52 15.1448 24.216 15.2888 23.912C15.4488 23.608 15.5688 23.36 15.6488 23.168C15.7608 22.944 15.8968 22.656 16.0568 22.304C16.2328 21.936 16.3928 21.592 16.5368 21.272C16.6968 20.936 16.8088 20.704 16.8728 20.576C16.6488 20.816 16.3768 21.12 16.0568 21.488C15.7528 21.84 15.4648 22.184 15.1928 22.52C14.9208 22.856 14.7128 23.12 14.5688 23.312C14.5208 23.376 14.4808 23.408 14.4488 23.408C14.4168 23.408 14.4008 23.368 14.4008 23.288C14.4008 23.16 14.4408 23.04 14.5208 22.928C14.8248 22.544 15.1608 22.112 15.5288 21.632C15.9128 21.152 16.2568 20.712 16.5608 20.312C16.8648 19.896 17.0568 19.624 17.1368 19.496C17.3128 19.464 17.5688 19.416 17.9048 19.352C18.2568 19.288 18.4968 19.2 18.6248 19.088C18.6728 19.04 18.7208 19.016 18.7688 19.016C18.8008 19.016 18.8168 19.048 18.8168 19.112C18.8328 19.16 18.8168 19.216 18.7688 19.28C18.6728 19.392 18.5048 19.664 18.2648 20.096C18.0248 20.528 17.7688 21.008 17.4968 21.536C17.2408 22.048 17.0008 22.512 16.7768 22.928C16.5528 23.36 16.3608 23.776 16.2008 24.176C16.0408 24.576 15.9608 24.864 15.9608 25.04C15.9608 25.264 16.0728 25.376 16.2968 25.376C16.5048 25.376 16.7688 25.248 17.0888 24.992C17.4248 24.736 17.7608 24.432 18.0968 24.08C18.4328 23.712 18.7288 23.376 18.9848 23.072C19.0648 22.976 19.1608 22.864 19.2728 22.736C19.4008 22.592 19.4808 22.504 19.5128 22.472C19.5448 22.504 19.5608 22.56 19.5608 22.64C19.5448 22.752 19.5048 22.864 19.4408 22.976C19.3768 23.072 19.3128 23.16 19.2488 23.24C18.9128 23.656 18.5448 24.088 18.1448 24.536C17.7448 24.968 17.3048 25.336 16.8248 25.64C16.3448 25.928 15.8248 26.072 15.2648 26.072ZM21.034 26.144C20.81 26.144 20.618 26.064 20.458 25.904C20.298 25.744 20.218 25.464 20.218 25.064C20.218 24.712 20.242 24.296 20.29 23.816C20.354 23.336 20.442 22.848 20.554 22.352C20.666 21.84 20.794 21.392 20.938 21.008C20.666 21.408 20.362 21.824 20.026 22.256C19.69 22.672 19.41 23.024 19.186 23.312C19.138 23.376 19.098 23.408 19.066 23.408C19.034 23.408 19.018 23.368 19.018 23.288C19.018 23.16 19.058 23.04 19.138 22.928C19.474 22.464 19.85 21.936 20.266 21.344C20.698 20.752 21.066 20.216 21.37 19.736C21.546 19.704 21.754 19.656 21.994 19.592C22.25 19.528 22.434 19.44 22.546 19.328C22.626 19.28 22.674 19.256 22.69 19.256C22.738 19.256 22.762 19.288 22.762 19.352C22.762 19.4 22.738 19.456 22.69 19.52C22.546 19.728 22.386 20.048 22.21 20.48C22.05 20.912 21.882 21.392 21.706 21.92C21.546 22.448 21.41 22.968 21.298 23.48C21.202 23.976 21.154 24.4 21.154 24.752C21.154 25.008 21.194 25.192 21.274 25.304C21.354 25.4 21.458 25.448 21.586 25.448C21.762 25.448 21.97 25.36 22.21 25.184C22.466 25.008 22.682 24.824 22.858 24.632C23.082 24.392 23.33 24.072 23.602 23.672C23.89 23.272 24.154 22.848 24.394 22.4C24.65 21.952 24.842 21.544 24.97 21.176C25.066 20.92 25.13 20.704 25.162 20.528C25.194 20.336 25.21 20.184 25.21 20.072C25.21 19.88 25.186 19.744 25.138 19.664C25.09 19.584 25.05 19.536 25.018 19.52C24.922 19.488 24.874 19.448 24.874 19.4C24.874 19.368 24.906 19.344 24.97 19.328C25.034 19.296 25.098 19.296 25.162 19.328C25.37 19.392 25.578 19.488 25.786 19.616C25.994 19.728 26.098 19.952 26.098 20.288C26.098 20.368 26.09 20.464 26.074 20.576C26.058 20.672 26.026 20.784 25.978 20.912C25.882 21.168 25.682 21.528 25.378 21.992C25.09 22.456 24.754 22.944 24.37 23.456C23.986 23.968 23.602 24.432 23.218 24.848C22.834 25.264 22.498 25.56 22.21 25.736C22.018 25.848 21.818 25.944 21.61 26.024C21.402 26.104 21.21 26.144 21.034 26.144ZM30.9927 25.856C30.9927 25.856 30.8007 25.872 30.4167 25.904C30.0327 25.92 29.2967 25.968 28.2087 26.048L28.4247 25.736C28.4727 25.752 28.5687 25.76 28.7127 25.76C28.9847 25.76 29.3127 25.704 29.6967 25.592C30.0967 25.464 30.3847 25.248 30.5607 24.944C30.6567 24.768 30.7767 24.488 30.9207 24.104C31.0647 23.72 31.2087 23.32 31.3527 22.904H29.9847C29.9847 22.904 29.6647 22.92 29.0247 22.952C28.3847 22.968 27.6327 23 26.7687 23.048H26.6007C26.4727 23.048 26.4087 23.032 26.4087 23C26.4087 22.952 26.4967 22.872 26.6727 22.76C26.9447 22.584 27.2727 22.288 27.6567 21.872C28.0407 21.456 28.4007 21.072 28.7367 20.72L31.5447 17.768C32.0087 17.272 32.3687 16.856 32.6247 16.52C32.8967 16.184 33.1207 15.984 33.2967 15.92C33.5687 15.84 33.8727 15.712 34.2087 15.536C34.5607 15.36 34.8087 15.272 34.9527 15.272C35.0807 15.272 35.1047 15.344 35.0247 15.488C34.7207 16.08 34.4407 16.736 34.1847 17.456C33.9287 18.176 33.6327 19.056 33.2967 20.096L32.9367 21.272C32.8567 21.528 32.7687 21.792 32.6727 22.064C32.9447 22.032 33.1847 22 33.3927 21.968C33.6167 21.92 33.7847 21.864 33.8967 21.8C34.0727 21.704 34.2727 21.56 34.4967 21.368C34.7207 21.176 34.9207 20.976 35.0967 20.768C35.2887 20.56 35.4087 20.4 35.4567 20.288L35.6967 20.36C35.6807 20.392 35.6007 20.504 35.4567 20.696C35.3287 20.872 35.1927 21.08 35.0487 21.32C34.9047 21.544 34.7847 21.752 34.6887 21.944C34.5287 22.248 34.3447 22.496 34.1367 22.688C33.9447 22.864 33.6727 22.952 33.3207 22.952C33.1927 22.952 33.0487 22.952 32.8887 22.952C32.7447 22.936 32.5927 22.928 32.4327 22.928C32.3207 23.344 32.2087 23.736 32.0967 24.104C32.0007 24.472 31.9367 24.752 31.9047 24.944C31.8727 25.2 31.9687 25.392 32.1927 25.52C32.4167 25.632 32.6647 25.704 32.9367 25.736C33.2247 25.752 33.4247 25.76 33.5367 25.76L33.2487 26.048C33.1687 26.016 32.9927 25.992 32.7207 25.976C32.4487 25.944 32.1527 25.92 31.8327 25.904C31.5127 25.872 31.2327 25.856 30.9927 25.856ZM30.6087 22.16C30.7847 22.16 30.9527 22.16 31.1127 22.16C31.2727 22.16 31.4327 22.152 31.5927 22.136C31.6567 21.96 31.7127 21.8 31.7607 21.656C31.8247 21.496 31.8647 21.36 31.8807 21.248L32.6967 18.728C32.8247 18.376 32.9207 18.056 32.9847 17.768C33.0647 17.464 33.1047 17.232 33.1047 17.072C33.1047 16.944 33.0807 16.856 33.0327 16.808C32.9047 16.888 32.6887 17.08 32.3847 17.384C32.0967 17.672 31.7607 18.016 31.3767 18.416C30.9927 18.816 30.6007 19.232 30.2007 19.664C29.8167 20.08 29.4567 20.472 29.1207 20.84C28.8007 21.192 28.5527 21.464 28.3767 21.656C28.2647 21.768 28.2087 21.864 28.2087 21.944C28.2087 22.008 28.3047 22.056 28.4967 22.088C28.7687 22.104 29.0887 22.12 29.4567 22.136C29.8247 22.152 30.2087 22.16 30.6087 22.16ZM35.9444 26.36C35.8804 26.36 35.8804 26.288 35.9444 26.144C36.0244 26 36.0964 25.84 36.1604 25.664C36.2404 25.488 36.3204 25.296 36.4004 25.088C36.5604 24.704 36.7364 24.272 36.9284 23.792C37.1204 23.312 37.3044 22.848 37.4804 22.4C37.6564 21.936 37.8084 21.544 37.9364 21.224C38.0804 20.888 38.1764 20.672 38.2244 20.576C38.0004 20.816 37.7284 21.12 37.4084 21.488C37.1044 21.84 36.8164 22.184 36.5444 22.52C36.2724 22.856 36.0644 23.12 35.9204 23.312C35.8724 23.376 35.8324 23.408 35.8004 23.408C35.7684 23.408 35.7524 23.368 35.7524 23.288C35.7524 23.16 35.7924 23.04 35.8724 22.928C36.1764 22.544 36.5124 22.112 36.8804 21.632C37.2644 21.152 37.6084 20.712 37.9124 20.312C38.2164 19.896 38.4084 19.624 38.4884 19.496C38.6644 19.464 38.9204 19.416 39.2564 19.352C39.6084 19.288 39.8484 19.2 39.9764 19.088C40.0244 19.04 40.0724 19.016 40.1204 19.016C40.1524 19.016 40.1684 19.048 40.1684 19.112C40.1844 19.16 40.1684 19.216 40.1204 19.28C40.0244 19.392 39.8564 19.656 39.6164 20.072C39.3924 20.472 39.1444 20.92 38.8724 21.416C38.6164 21.912 38.3764 22.36 38.1524 22.76C38.3444 22.504 38.5524 22.256 38.7764 22.016C39.0004 21.776 39.2164 21.544 39.4244 21.32C39.6164 21.128 39.8804 20.888 40.2164 20.6C40.5524 20.312 40.9044 20.048 41.2724 19.808C41.6404 19.568 41.9604 19.432 42.2324 19.4C42.2964 19.384 42.3524 19.376 42.4004 19.376C42.4644 19.376 42.5124 19.376 42.5444 19.376C42.8964 19.376 43.0724 19.504 43.0724 19.76C43.0724 19.952 42.9684 20.208 42.7604 20.528C42.6484 20.704 42.4724 21 42.2324 21.416C42.0084 21.816 41.7764 22.256 41.5364 22.736C41.3124 23.2 41.1124 23.64 40.9364 24.056C40.7764 24.456 40.6964 24.752 40.6964 24.944C40.6964 25.168 40.8084 25.28 41.0324 25.28C41.3044 25.28 41.6004 25.144 41.9204 24.872C42.2564 24.6 42.6164 24.256 43.0004 23.84C43.3844 23.408 43.7684 22.952 44.1524 22.472C44.1844 22.504 44.2004 22.56 44.2004 22.64C44.2004 22.752 44.1604 22.864 44.0804 22.976C44.0164 23.072 43.9524 23.16 43.8884 23.24C43.7284 23.448 43.5124 23.712 43.2404 24.032C42.9844 24.336 42.7204 24.64 42.4484 24.944C42.1764 25.232 41.9284 25.464 41.7044 25.64C41.5444 25.752 41.3364 25.872 41.0804 26C40.8244 26.128 40.5684 26.192 40.3124 26.192C40.0244 26.192 39.8244 26.12 39.7124 25.976C39.6004 25.816 39.5444 25.624 39.5444 25.4C39.5444 25.144 39.5924 24.872 39.6884 24.584C39.7844 24.296 39.8884 24.024 40.0004 23.768C40.1284 23.496 40.2244 23.296 40.2884 23.168C40.5764 22.608 40.8404 22.08 41.0804 21.584C41.3204 21.088 41.4884 20.736 41.5844 20.528C41.6324 20.432 41.6564 20.352 41.6564 20.288C41.6564 20.176 41.5684 20.168 41.3924 20.264C41.2164 20.36 41.0004 20.504 40.7444 20.696C40.5044 20.888 40.2804 21.08 40.0724 21.272C39.8644 21.448 39.7284 21.568 39.6644 21.632C39.0724 22.256 38.5524 22.952 38.1044 23.72C37.6724 24.472 37.3044 25.248 37.0004 26.048C36.7924 26.064 36.5844 26.12 36.3764 26.216C36.1684 26.312 36.0244 26.36 35.9444 26.36ZM39.4262 34.4C38.8182 34.4 38.2342 34.256 37.6742 33.968C37.0982 33.696 36.6742 33.272 36.4022 32.696C36.2902 32.488 36.2182 32.264 36.1862 32.024C36.1542 31.8 36.1382 31.576 36.1382 31.352V31.112C36.1382 30.984 36.1542 30.864 36.1862 30.752C36.2182 30.64 36.3062 30.584 36.4502 30.584C36.4822 30.584 36.4982 30.6 36.4982 30.632C36.4982 30.728 36.4902 30.824 36.4742 30.92C36.4582 31.016 36.4502 31.12 36.4502 31.232C36.4502 31.968 36.6902 32.528 37.1702 32.912C37.6342 33.296 38.2182 33.488 38.9222 33.488C39.2102 33.488 39.5062 33.456 39.8102 33.392C40.1142 33.328 40.3942 33.24 40.6502 33.128C41.6742 32.696 42.5622 32.072 43.3143 31.256C44.0823 30.44 44.7463 29.52 45.3063 28.496C45.8823 27.472 46.3863 26.424 46.8183 25.352C47.2663 24.264 47.6823 23.24 48.0663 22.28C47.7303 22.824 47.3623 23.312 46.9623 23.744C46.5623 24.16 46.1143 24.576 45.6183 24.992C45.3143 25.248 44.9783 25.488 44.6103 25.712C44.2583 25.936 43.8743 26.048 43.4583 26.048C43.2983 26.048 43.1863 26 43.1223 25.904C43.0583 25.792 43.0263 25.664 43.0263 25.52V25.352C43.1063 24.728 43.3063 24.08 43.6263 23.408C43.9623 22.736 44.3623 22.104 44.8263 21.512C45.2903 20.92 45.7623 20.44 46.2423 20.072C46.7863 19.656 47.3863 19.448 48.0423 19.448H50.8023C50.8823 19.448 50.9223 19.48 50.9223 19.544C50.9223 19.672 50.8503 19.736 50.7063 19.736C50.5303 19.736 50.3623 19.808 50.2023 19.952C50.0423 20.096 49.9223 20.232 49.8423 20.36C49.6823 20.616 49.4743 21.008 49.2183 21.536C48.9623 22.064 48.6823 22.672 48.3783 23.36C48.0743 24.032 47.7703 24.72 47.4663 25.424C47.1623 26.112 46.8823 26.76 46.6263 27.368C46.2423 28.28 45.8023 29.168 45.3063 30.032C44.8263 30.912 44.2503 31.696 43.5783 32.384C42.9223 33.088 42.1382 33.64 41.2262 34.04C40.6822 34.28 40.0822 34.4 39.4262 34.4ZM44.4423 25.232C44.6343 25.232 44.8983 25.096 45.2343 24.824C45.5703 24.536 45.9383 24.184 46.3383 23.768C46.7383 23.336 47.1143 22.888 47.4663 22.424C47.8183 21.944 48.1063 21.512 48.3303 21.128C48.5703 20.728 48.6903 20.424 48.6903 20.216C48.6903 20.04 48.6343 19.92 48.5223 19.856C48.4263 19.792 48.2983 19.76 48.1383 19.76C47.8823 19.76 47.6103 19.856 47.3223 20.048C47.0343 20.224 46.8023 20.4 46.6263 20.576C46.4343 20.752 46.2023 21.032 45.9303 21.416C45.6743 21.784 45.4103 22.192 45.1383 22.64C44.8823 23.088 44.6663 23.52 44.4902 23.936C44.3143 24.352 44.2263 24.688 44.2263 24.944C44.2263 25.136 44.2983 25.232 44.4423 25.232ZM55.0658 16.832C54.8418 16.832 54.6818 16.76 54.5858 16.616C54.5218 16.536 54.4898 16.432 54.4898 16.304C54.4898 16.048 54.6098 15.84 54.8498 15.68C55.0258 15.584 55.1858 15.536 55.3298 15.536C55.5698 15.536 55.7378 15.608 55.8338 15.752C55.8978 15.832 55.9298 15.936 55.9298 16.064C55.9298 16.32 55.8018 16.528 55.5458 16.688C55.4018 16.784 55.2418 16.832 55.0658 16.832ZM50.8898 26.072C50.7298 26.072 50.5938 26.04 50.4818 25.976C50.3858 25.912 50.3378 25.792 50.3378 25.616C50.3378 25.392 50.3938 25.128 50.5058 24.824C50.6338 24.52 50.7698 24.216 50.9138 23.912C51.0738 23.608 51.1938 23.36 51.2738 23.168C51.3858 22.944 51.5218 22.656 51.6818 22.304C51.8578 21.936 52.0178 21.592 52.1618 21.272C52.3218 20.936 52.4338 20.704 52.4978 20.576C52.2738 20.816 52.0018 21.12 51.6818 21.488C51.3778 21.84 51.0898 22.184 50.8178 22.52C50.5458 22.856 50.3378 23.12 50.1938 23.312C50.1458 23.376 50.1058 23.408 50.0738 23.408C50.0418 23.408 50.0258 23.368 50.0258 23.288C50.0258 23.16 50.0658 23.04 50.1458 22.928C50.4498 22.544 50.7858 22.112 51.1538 21.632C51.5378 21.152 51.8818 20.712 52.1858 20.312C52.4898 19.896 52.6818 19.624 52.7618 19.496C52.9378 19.464 53.1938 19.416 53.5298 19.352C53.8818 19.288 54.1218 19.2 54.2498 19.088C54.2978 19.04 54.3458 19.016 54.3938 19.016C54.4258 19.016 54.4418 19.048 54.4418 19.112C54.4578 19.16 54.4418 19.216 54.3938 19.28C54.2978 19.392 54.1298 19.664 53.8898 20.096C53.6498 20.528 53.3938 21.008 53.1218 21.536C52.8658 22.048 52.6258 22.512 52.4018 22.928C52.1778 23.36 51.9858 23.776 51.8258 24.176C51.6658 24.576 51.5858 24.864 51.5858 25.04C51.5858 25.264 51.6978 25.376 51.9218 25.376C52.1298 25.376 52.3938 25.248 52.7138 24.992C53.0498 24.736 53.3858 24.432 53.7218 24.08C54.0578 23.712 54.3538 23.376 54.6098 23.072C54.6898 22.976 54.7858 22.864 54.8978 22.736C55.0258 22.592 55.1058 22.504 55.1378 22.472C55.1698 22.504 55.1858 22.56 55.1858 22.64C55.1698 22.752 55.1298 22.864 55.0658 22.976C55.0018 23.072 54.9378 23.16 54.8738 23.24C54.5378 23.656 54.1698 24.088 53.7698 24.536C53.3698 24.968 52.9298 25.336 52.4498 25.64C51.9698 25.928 51.4498 26.072 50.8898 26.072Z" fill="white"/>
<defs>
<linearGradient id="paint0_linear_106_3" x1="28.5" y1="0" x2="28.5" y2="41" gradientUnits="userSpaceOnUse">
<stop offset="0.130936" stop-color="#8A2BE2"/>
<stop offset="0.528126" stop-color="#AF1DEB"/>
<stop offset="1" stop-color="#4169E1"/>
</linearGradient>
</defs>
</svg>
